<svg xmlns="http://www.w3.org/2000/svg" viewBox="0 0 960 480" role="img" aria-label="Clinical-trial records by year">
<rect width="100%" height="100%" fill="#ffffff"/>
<text x="46" y="48" fill="#18312e" font-family="Georgia,serif" font-size="27">Clinical-trial records by year</text>
<text x="46" y="73" fill="#667773" font-family="Arial,sans-serif" font-size="13">Counts recalculated from bundled dataset; 2026 is partial</text>
<line x1="56" y1="406.0" x2="934" y2="406.0" stroke="#d9e2dc"/>
<text x="46" y="410.0" text-anchor="end" fill="#52645f" font-family="Arial,sans-serif" font-size="10" font-weight="400">0</text>
<line x1="56" y1="332.5" x2="934" y2="332.5" stroke="#d9e2dc"/>
<text x="46" y="336.5" text-anchor="end" fill="#52645f" font-family="Arial,sans-serif" font-size="10" font-weight="400">300</text>
<line x1="56" y1="259.0" x2="934" y2="259.0" stroke="#d9e2dc"/>
<text x="46" y="263.0" text-anchor="end" fill="#52645f" font-family="Arial,sans-serif" font-size="10" font-weight="400">600</text>
<line x1="56" y1="185.5" x2="934" y2="185.5" stroke="#d9e2dc"/>
<text x="46" y="189.5" text-anchor="end" fill="#52645f" font-family="Arial,sans-serif" font-size="10" font-weight="400">900</text>
<line x1="56" y1="112.0" x2="934" y2="112.0" stroke="#d9e2dc"/>
<text x="46" y="116.0" text-anchor="end" fill="#52645f" font-family="Arial,sans-serif" font-size="10" font-weight="400">1200</text>
<rect x="64.8" y="223.0" width="34.1" height="183.0" fill="#176b56"/>
<text x="81.82352941176471" y="437" text-anchor="middle" fill="#52645f" font-family="Arial,sans-serif" font-size="10" font-weight="400">2010</text>
<rect x="116.4" y="226.2" width="34.1" height="179.8" fill="#176b56"/>
<text x="133.47058823529412" y="437" text-anchor="middle" fill="#52645f" font-family="Arial,sans-serif" font-size="10" font-weight="400">2011</text>
<rect x="168.1" y="217.1" width="34.1" height="188.9" fill="#176b56"/>
<text x="185.11764705882354" y="437" text-anchor="middle" fill="#52645f" font-family="Arial,sans-serif" font-size="10" font-weight="400">2012</text>
<rect x="219.7" y="208.3" width="34.1" height="197.7" fill="#176b56"/>
<text x="236.76470588235293" y="437" text-anchor="middle" fill="#52645f" font-family="Arial,sans-serif" font-size="10" font-weight="400">2013</text>
<rect x="271.4" y="197.0" width="34.1" height="209.0" fill="#176b56"/>
<text x="288.4117647058824" y="437" text-anchor="middle" fill="#52645f" font-family="Arial,sans-serif" font-size="10" font-weight="400">2014</text>
<rect x="323.0" y="200.4" width="34.1" height="205.6" fill="#176b56"/>
<text x="340.05882352941177" y="437" text-anchor="middle" fill="#52645f" font-family="Arial,sans-serif" font-size="10" font-weight="400">2015</text>
<rect x="374.7" y="193.6" width="34.1" height="212.4" fill="#176b56"/>
<text x="391.70588235294116" y="437" text-anchor="middle" fill="#52645f" font-family="Arial,sans-serif" font-size="10" font-weight="400">2016</text>
<rect x="426.3" y="188.2" width="34.1" height="217.8" fill="#176b56"/>
<text x="443.35294117647067" y="437" text-anchor="middle" fill="#52645f" font-family="Arial,sans-serif" font-size="10" font-weight="400">2017</text>
<rect x="478.0" y="187.7" width="34.1" height="218.3" fill="#176b56"/>
<text x="495.00000000000006" y="437" text-anchor="middle" fill="#52645f" font-family="Arial,sans-serif" font-size="10" font-weight="400">2018</text>
<rect x="529.6" y="167.9" width="34.1" height="238.1" fill="#176b56"/>
<text x="546.6470588235293" y="437" text-anchor="middle" fill="#52645f" font-family="Arial,sans-serif" font-size="10" font-weight="400">2019</text>
<rect x="581.3" y="221.5" width="34.1" height="184.5" fill="#176b56"/>
<text x="598.2941176470588" y="437" text-anchor="middle" fill="#52645f" font-family="Arial,sans-serif" font-size="10" font-weight="400">2020</text>
<rect x="632.9" y="163.2" width="34.1" height="242.8" fill="#176b56"/>
<text x="649.9411764705882" y="437" text-anchor="middle" fill="#52645f" font-family="Arial,sans-serif" font-size="10" font-weight="400">2021</text>
<rect x="684.5" y="163.5" width="34.1" height="242.5" fill="#176b56"/>
<text x="701.5882352941176" y="437" text-anchor="middle" fill="#52645f" font-family="Arial,sans-serif" font-size="10" font-weight="400">2022</text>
<rect x="736.2" y="155.4" width="34.1" height="250.6" fill="#176b56"/>
<text x="753.235294117647" y="437" text-anchor="middle" fill="#52645f" font-family="Arial,sans-serif" font-size="10" font-weight="400">2023</text>
<rect x="787.8" y="141.6" width="34.1" height="264.4" fill="#176b56"/>
<text x="804.8823529411765" y="437" text-anchor="middle" fill="#52645f" font-family="Arial,sans-serif" font-size="10" font-weight="400">2024</text>
<rect x="839.5" y="157.1" width="34.1" height="248.9" fill="#176b56"/>
<text x="856.5294117647059" y="437" text-anchor="middle" fill="#52645f" font-family="Arial,sans-serif" font-size="10" font-weight="400">2025</text>
<rect x="891.1" y="194.1" width="34.1" height="211.9" fill="#cf624b"/>
<text x="908.1764705882352" y="437" text-anchor="middle" fill="#52645f" font-family="Arial,sans-serif" font-size="10" font-weight="400">2026</text>
<text x="934" y="465" text-anchor="end" fill="#52645f" font-family="Arial,sans-serif" font-size="10" font-weight="400">* 2026 partial</text>
</svg>